HIERARCHY
ROOT Hips
{
	OFFSET 0.00000 0.00000 0.00000
	CHANNELS 6 Xposition Yposition Zposition Zrotation Yrotation Xrotation 
	JOINT LHipJoint
	{
		OFFSET 0 0 0
		CHANNELS 3 Zrotation Yrotation Xrotation
		JOINT LeftUpLeg
		{
			OFFSET 1.58895 -1.83665 0.71753
			CHANNELS 3 Zrotation Yrotation Xrotation
			JOINT LeftLeg
			{
				OFFSET 2.50528 -6.88321 0.00000
				CHANNELS 3 Zrotation Yrotation Xrotation
				JOINT LeftFoot
				{
					OFFSET 2.63244 -7.23257 0.00000
					CHANNELS 3 Zrotation Yrotation Xrotation
					JOINT LeftToeBase
					{
						OFFSET 0.23691 -0.65090 1.72750
						CHANNELS 3 Zrotation Yrotation Xrotation
						End Site
						{
							OFFSET 0.00000 -0.00000 0.92561
						}
					}
				}
			}
		}
	}
	JOINT RHipJoint
	{
		OFFSET 0 0 0
		CHANNELS 3 Zrotation Yrotation Xrotation
		JOINT RightUpLeg
		{
			OFFSET -1.51435 -1.83665 0.71753
			CHANNELS 3 Zrotation Yrotation Xrotation
			JOINT RightLeg
			{
				OFFSET -2.54551 -6.99375 0.00000
				CHANNELS 3 Zrotation Yrotation Xrotation
				JOINT RightFoot
				{
					OFFSET -2.66027 -7.30903 0.00000
					CHANNELS 3 Zrotation Yrotation Xrotation
					JOINT RightToeBase
					{
						OFFSET -0.22981 -0.63138 2.03959
						CHANNELS 3 Zrotation Yrotation Xrotation
						End Site
						{
							OFFSET -0.00000 -0.00000 1.07060
						}
					}
				}
			}
		}
	}
	JOINT LowerBack
	{
		OFFSET 0 0 0
		CHANNELS 3 Zrotation Yrotation Xrotation
		JOINT Spine
		{
			OFFSET -0.02651 1.86275 -0.11152
			CHANNELS 3 Zrotation Yrotation Xrotation
			JOINT Spine1
			{
				OFFSET 0.01019 1.86224 0.04087
				CHANNELS 3 Zrotation Yrotation Xrotation
				JOINT Neck
				{
					OFFSET 0 0 0
					CHANNELS 3 Zrotation Yrotation Xrotation
					JOINT Neck1
					{
						OFFSET -0.01926 1.80512 0.08867
						CHANNELS 3 Zrotation Yrotation Xrotation
						JOINT Head
						{
							OFFSET 0.05516 1.76451 -0.38475
							CHANNELS 3 Zrotation Yrotation Xrotation
							End Site
							{
								OFFSET 0.01592 1.82587 -0.14001
							}
						}
					}
				}
				JOINT LeftShoulder
				{
					OFFSET 0 0 0
					CHANNELS 3 Zrotation Yrotation Xrotation
					JOINT LeftArm
					{
						OFFSET 3.47116 1.51376 0.14491
						CHANNELS 3 Zrotation Yrotation Xrotation
						JOINT LeftForeArm
						{
							OFFSET 4.78095 -0.00000 0.00000
							CHANNELS 3 Zrotation Yrotation Xrotation
							JOINT LeftHand
							{
								OFFSET 3.58615 -0.00000 -0.00000
								CHANNELS 3 Zrotation Yrotation Xrotation
								JOINT LeftFingerBase
								{
									OFFSET 0 0 0
									CHANNELS 3 Zrotation Yrotation Xrotation
									JOINT LeftHandIndex1
									{
										OFFSET 0.65981 -0.00000 0.00000
										CHANNELS 3 Zrotation Yrotation Xrotation
										End Site
										{
											OFFSET 0.53196 -0.00000 0.00000
										}
									}
								}
								JOINT LThumb
								{
									OFFSET 0 0 0
									CHANNELS 3 Zrotation Yrotation Xrotation
									End Site
									{
										OFFSET 0.54008 -0.00000 0.54008
									}
								}
							}
						}
					}
				}
				JOINT RightShoulder
				{
					OFFSET 0 0 0
					CHANNELS 3 Zrotation Yrotation Xrotation
					JOINT RightArm
					{
						OFFSET -3.31725 1.61216 0.35156
						CHANNELS 3 Zrotation Yrotation Xrotation
						JOINT RightForeArm
						{
							OFFSET -4.48913 -0.00000 0.00000
							CHANNELS 3 Zrotation Yrotation Xrotation
							JOINT RightHand
							{
								OFFSET -3.70510 -0.00000 0.00000
								CHANNELS 3 Zrotation Yrotation Xrotation
								JOINT RightFingerBase
								{
									OFFSET 0 0 0
									CHANNELS 3 Zrotation Yrotation Xrotation
									JOINT RightHandIndex1
									{
										OFFSET -0.44914 -0.00000 0.00000
										CHANNELS 3 Zrotation Yrotation Xrotation
										End Site
										{
											OFFSET -0.36211 -0.00000 0.00000
										}
									}
								}
								JOINT RThumb
								{
									OFFSET 0 0 0
									CHANNELS 3 Zrotation Yrotation Xrotation
									End Site
									{
										OFFSET -0.36763 -0.00000 0.36763
									}
								}
							}
						}
					}
				}
			}
		}
	}
}
MOTION
Frames: 10
Frame Time: .0083333
-0.5881 18.6696 5.6708 0 0 0 0 0 0 -21 0 0 0 0 0 0 0 0 0 0 0 0 0 0 21 0 0 0 0 0 0 0 0 0 0 0 0 0 0 0 0 0 0 0 0 0 0 -16 0 0 21 0 0 11 0 0 0 -8 0 0 0 0 0 0 0 0 0 0 0 0 0 0 0 0 0 0 0 0 8 0 0 0 0 0 0 0 0 0 0 0 0 0 0 0 0 0
-0.5881 18.6696 5.6708 -2.7309 -4.5232 1.1385 0.0000 0.0000 0.0000 -12.5566 -7.3558 -0.2161 1.3115 7.2542 20.4706 1.7994 8.2695 -29.4593 7.9684 -16.0960 -52.4487 0.0000 0.0000 0.0000 0.0000 0.0000 0.0000 0.0000 0.0000 0.0000 -0.0000 -0.0000 0.0000 -0.0000 -0.0000 0.0000 1.3933 1.1920 1.0364 0.3987 1.6354 -2.2363 -0.4278 0.7895 -2.8486 -1.9360 -1.9387 -11.5539 3.3471 -3.3611 29.2198 1.1241 -1.3330 11.4968 0.0000 -0.0000 0.0000 -89.5927 13.0857 31.5770 20.7934 -31.5864 -5.9414 -0.0000 -0.0000 5.1057 12.4385 -28.2126 -5.9529 -7.1250 0.0000 -0.0000 -10.6031 1.6229 10.4812 0.0000 -0.0000 0.0000 92.4364 -18.8989 18.3144 -25.0024 36.2064 -8.2913 0.0000 0.0000 21.7233 -8.3823 -36.5105 5.0103 7.1250 -0.0000 -0.0000 31.9156 -64.0007 -15.4575
-0.5870 18.6694 5.6708 -2.7566 -4.5287 1.1330 0.0000 0.0000 0.0000 -12.5355 -7.3559 -0.2194 1.3154 7.2643 20.5009 1.8019 8.2746 -29.4786 7.9647 -16.0932 -52.4354 0.0000 0.0000 0.0000 0.0000 0.0000 0.0000 0.0000 0.0000 0.0000 -0.0000 -0.0000 0.0000 -0.0000 -0.0000 0.0000 1.4288 1.1811 1.0610 0.4026 1.6224 -2.2481 -0.4439 0.7821 -2.8739 -1.9681 -1.9390 -11.5516 3.3946 -3.3690 29.2321 1.1463 -1.3343 11.5029 0.0000 -0.0000 0.0000 -89.6016 13.1115 31.5428 20.7924 -31.5853 -5.9408 -0.0000 -0.0000 5.1429 12.4624 -28.2225 -5.9665 -7.1250 0.0000 -0.0000 -10.5897 1.6097 10.4700 0.0000 -0.0000 0.0000 92.4423 -18.9207 18.3382 -24.9966 36.2005 -8.2879 0.0000 0.0000 21.6908 -8.2459 -36.5752 4.9355 7.1250 -0.0000 -0.0000 32.1355 -64.0174 -15.5874
-0.5868 18.6690 5.6702 -2.7729 -4.5409 1.1304 0.0000 0.0000 0.0000 -12.5172 -7.3412 -0.2219 1.3167 7.2678 20.5114 1.8033 8.2655 -29.4820 7.9688 -16.0962 -52.4502 0.0000 0.0000 0.0000 0.0000 0.0000 0.0000 0.0000 0.0000 0.0000 -0.0000 -0.0000 0.0000 -0.0000 -0.0000 0.0000 1.4387 1.1721 1.0774 0.4079 1.6112 -2.2536 -0.4440 0.7762 -2.8889 -1.9488 -1.9382 -11.5217 3.3818 -3.3681 29.2002 1.1383 -1.3341 11.4837 0.0000 -0.0000 0.0000 -89.6177 13.1188 31.4950 20.7958 -31.5892 -5.9426 -0.0000 -0.0000 5.1397 12.4293 -28.2247 -5.9507 -7.1250 0.0000 -0.0000 -10.6093 1.6122 10.4896 0.0000 -0.0000 0.0000 92.4315 -18.9304 18.3832 -24.9903 36.1940 -8.2842 0.0000 0.0000 21.6006 -7.7712 -36.7475 4.6678 7.1250 -0.0000 -0.0000 32.8369 -64.0311 -15.9743
-0.5867 18.6690 5.6697 -2.7739 -4.5428 1.1299 0.0000 0.0000 0.0000 -12.5126 -7.3266 -0.2272 1.3166 7.2676 20.5107 1.7988 8.2575 -29.4478 7.9760 -16.1016 -52.4762 0.0000 0.0000 0.0000 0.0000 0.0000 0.0000 0.0000 0.0000 0.0000 -0.0000 -0.0000 0.0000 -0.0000 -0.0000 0.0000 1.4292 1.1678 1.0760 0.4151 1.6053 -2.2524 -0.4312 0.7736 -2.8875 -1.9380 -1.9436 -11.5139 3.3593 -3.3714 29.1893 1.1277 -1.3375 11.4774 0.0000 0.0000 0.0000 -89.6241 13.1462 31.5311 20.8373 -31.6380 -5.9644 -0.0000 -0.0000 5.0570 12.3987 -28.1978 -5.9305 -7.1250 0.0000 -0.0000 -10.6256 1.6430 10.5003 0.0000 0.0000 0.0000 92.4081 -18.9261 18.4042 -24.9895 36.1933 -8.2837 0.0000 0.0000 21.5234 -7.6707 -36.8073 4.6134 7.1250 -0.0000 -0.0000 33.0143 -64.0530 -16.0867
-0.5869 18.6695 5.6696 -2.7270 -4.5467 1.1269 0.0000 0.0000 0.0000 -12.5642 -7.3275 -0.2273 1.3162 7.2665 20.5072 1.7974 8.2556 -29.4371 7.9762 -16.1017 -52.4770 0.0000 0.0000 0.0000 0.0000 0.0000 0.0000 0.0000 0.0000 0.0000 -0.0000 -0.0000 0.0000 -0.0000 -0.0000 0.0000 1.3547 1.1623 1.0689 0.4151 1.5960 -2.2542 -0.3891 0.7706 -2.8875 -1.9375 -1.9371 -11.5220 3.3530 -3.3619 29.2279 1.1267 -1.3335 11.4936 -0.0000 0.0000 0.0000 -89.6299 13.1779 31.5720 20.8643 -31.6696 -5.9785 -0.0000 -0.0000 5.0124 12.4443 -28.1778 -5.9490 -7.1250 0.0000 -0.0000 -10.5975 1.6566 10.4690 -0.0000 0.0000 0.0000 92.3953 -18.9444 18.3708 -24.9991 36.2031 -8.2894 0.0000 0.0000 21.5896 -7.9967 -36.5855 4.7862 7.1250 -0.0000 -0.0000 32.4060 -63.9586 -15.6882
-0.5870 18.6696 5.6695 -2.7007 -4.5461 1.1155 0.0000 0.0000 0.0000 -12.5930 -7.3243 -0.2180 1.3154 7.2644 20.5010 1.7984 8.2477 -29.4385 7.9785 -16.1035 -52.4854 0.0000 0.0000 0.0000 0.0000 0.0000 0.0000 0.0000 0.0000 0.0000 -0.0000 -0.0000 0.0000 -0.0000 -0.0000 0.0000 1.3150 1.1521 1.0944 0.4057 1.5817 -2.2649 -0.3767 0.7640 -2.9138 -1.8845 -1.9306 -11.5037 3.3102 -3.3533 29.2392 1.1031 -1.3293 11.4922 -0.0000 0.0000 0.0000 -89.6331 13.1755 31.5362 20.8340 -31.6341 -5.9626 -0.0000 -0.0000 5.0241 12.5002 -28.2043 -5.9815 -7.1250 0.0000 -0.0000 -10.5663 1.6225 10.4436 -0.0000 0.0000 0.0000 92.4114 -18.9867 18.3381 -25.0177 36.2221 -8.3004 0.0000 0.0000 21.6960 -8.1817 -36.5022 4.8883 7.1250 -0.0000 -0.0000 32.1137 -63.9398 -15.5180
-0.5860 18.6689 5.6693 -2.7289 -4.5352 1.0983 0.0000 0.0000 0.0000 -12.5664 -7.3265 -0.1946 1.3146 7.2622 20.4945 1.7994 8.2463 -29.4444 7.9697 -16.0969 -52.4533 0.0000 0.0000 0.0000 0.0000 0.0000 0.0000 0.0000 0.0000 0.0000 -0.0000 -0.0000 0.0000 -0.0000 -0.0000 0.0000 1.3671 1.1483 1.1232 0.4033 1.5783 -2.2612 -0.4088 0.7611 -2.9249 -1.8638 -1.9513 -11.5120 3.2740 -3.3771 29.2302 1.0828 -1.3422 11.4900 -0.0000 -0.0000 0.0000 -89.6301 13.1616 31.5380 20.8228 -31.6209 -5.9567 -0.0000 -0.0000 5.0126 12.5334 -28.2269 -6.0022 -7.1250 0.0000 -0.0000 -10.5482 1.5956 10.4303 -0.0000 -0.0000 0.0000 92.4184 -18.9862 18.3195 -25.0128 36.2170 -8.2974 0.0000 0.0000 21.7347 -8.1912 -36.5936 4.9046 7.1250 -0.0000 -0.0000 32.2145 -64.0178 -15.6300
-0.5855 18.6685 5.6695 -2.7602 -4.5330 1.0902 0.0000 0.0000 0.0000 -12.5362 -7.3331 -0.1780 1.3145 7.2621 20.4944 1.8011 8.2476 -29.4562 7.9553 -16.0863 -52.4014 0.0000 0.0000 0.0000 0.0000 0.0000 0.0000 0.0000 0.0000 0.0000 -0.0000 -0.0000 0.0000 -0.0000 -0.0000 0.0000 1.4068 1.1472 1.1235 0.4144 1.5780 -2.2498 -0.4195 0.7603 -2.9126 -1.9017 -1.9708 -11.5394 3.2802 -3.3980 29.2342 1.0887 -1.3548 11.4987 0.0000 0.0000 0.0000 -89.6307 13.1723 31.5851 20.8574 -31.6615 -5.9749 -0.0000 -0.0000 4.9478 12.4981 -28.2277 -5.9850 -7.1250 0.0000 -0.0000 -10.5691 1.5997 10.4508 0.0000 0.0000 0.0000 92.3991 -18.9646 18.2871 -24.9835 36.1871 -8.2802 0.0000 0.0000 21.7666 -8.1309 -36.5141 4.8591 7.1250 -0.0000 -0.0000 32.1805 -63.9359 -15.5507
-0.5860 18.6684 5.6696 -2.7784 -4.5357 1.0934 0.0000 0.0000 0.0000 -12.5150 -7.3385 -0.1764 1.3147 7.2625 20.4954 1.8008 8.2430 -29.4510 7.9498 -16.0822 -52.3816 0.0000 0.0000 0.0000 0.0000 0.0000 0.0000 0.0000 0.0000 0.0000 -0.0000 -0.0000 0.0000 -0.0000 -0.0000 0.0000 1.4093 1.1415 1.1076 0.4212 1.5704 -2.2483 -0.4132 0.7566 -2.9023 -1.9534 -1.9553 -11.5271 3.3457 -3.3828 29.2314 1.1239 -1.3457 11.4969 -0.0000 -0.0000 0.0000 -89.6404 13.1735 31.5532 20.8635 -31.6687 -5.9781 -0.0000 -0.0000 4.9457 12.4371 -28.2862 -5.9663 -7.1250 0.0000 -0.0000 -10.6087 1.5502 10.5009 -0.0000 -0.0000 0.0000 92.3946 -18.9747 18.2686 -24.9661 36.1693 -8.2699 0.0000 0.0000 21.8248 -8.0446 -36.4203 4.7965 7.1250 -0.0000 -0.0000 32.1568 -63.8352 -15.4630
